<?xml version="1.0" encoding="iso-8859-1"?>
<!-- Generator: Adobe Illustrator 18.1.1, SVG Export Plug-In . SVG Version: 6.00 Build 0)  -->
<svg version="1.1" id="Capa_1" xmlns="http://www.w3.org/2000/svg" xmlns:xlink="http://www.w3.org/1999/xlink" x="0px" y="0px"
	 viewBox="0 0 251.982 251.982" style="fill: red; enable-background:new 0 0 251.982 251.982;" xml:space="preserve">
<g>
	<g>
		<path d="M213.217,208.134c0-10.069-12.919-14.764-14.312-12.379c8.103-5.51,12.729-19.534,5.697-29.699
			c-5.375-7.762-16.26-12.238-28.658-5.812c9.824-9.673,17.756-29.548-1.126-43.167c-9.02-6.502-26.51-1.978-32.396,6.88
			c5.034-13.723,4.068-49.262-26.577-49.262c-13.151,0-39.079,16.776-17.061,65.58c-7.453-9.332-24.414-10.203-34.725,0.208
			c-9.971,10.08-7.084,27.655,3.114,38.918c-4.393-2.819-28.408-2.479-28.408,20.103c0,17.576,14.207,23.32,18.46,23.32h39.032
			L65.72,207.008l33.773-1.627l-23.902-47.162l36.831,28.433l2.589-77.533l16.154,71.703l31.017-41.341l-16.811,60.725
			l44.578-21.957l-36.863,34.658l42.685-1.061l-37.129,10.979h43.594C207.101,222.378,213.217,217.581,213.217,208.134z"/>
		<path d="M245.073,183.47c4.533,6.871,6.909,14.746,6.909,23.037c0,3.303-0.407,6.246-0.72,8.158
			c-0.853,5.289-5.85,8.887-11.111,8.025c-5.281-0.854-8.878-5.82-8.025-11.104c0.266-1.627,0.474-3.293,0.474-5.082
			c0-5.461-1.836-10.41-5.47-14.697l-3.428-4.061l1.571-5.074c1.817-5.857,3.71-17.377-3.956-28.459
			c-3.36-4.854-7.988-8.697-13.364-11.14l-6.567-2.973l0.956-7.136c0.351-2.659,0.436-5.281,0.235-7.761
			c-0.596-7.607-3.956-18.586-16.676-27.762c-5.263-3.81-12.531-5.641-20.32-5.167l-8.594,0.525l-1.533-8.471
			c-1.354-7.481-3.983-14.073-7.846-19.577c-7.288-10.468-18.981-16.222-32.908-16.222c-11.65,0-23.723,7.037-30.741,17.921
			c-6.426,9.923-8.684,22.317-6.715,36.835l1.197,8.944l-8.835,1.846c-7.307,1.514-14.168,5.224-19.327,10.43
			c-8.054,8.12-11.301,20.045-8.906,32.709l1.34,7.089l-6.407,3.321c-6.309,3.293-16.922,11.451-16.922,29.282
			c0,4.515,0.737,8.888,2.19,12.985c1.784,5.055-0.86,10.592-5.9,12.359c-1.079,0.379-2.163,0.568-3.237,0.568
			c-3.994,0-7.729-2.479-9.144-6.455C1.116,210.177,0,203.628,0,196.908c0-18.039,7.714-33.314,21.418-42.874
			c-1.324-16.515,4.004-31.971,15.102-43.158c5.873-5.934,12.938-10.477,20.77-13.368c-0.865-19.459,4.97-33.173,10.397-41.578
			c10.494-16.257,28.969-26.773,47.032-26.773c20.453,0,37.771,8.703,48.808,24.508c4.022,5.75,7.099,12.242,9.181,19.364
			c9.182,0.767,17.698,3.762,24.552,8.712c18.729,13.511,23.735,30.272,24.646,41.971c0.143,1.627,0.189,3.312,0.17,4.997
			c5.963,3.738,11.149,8.67,15.183,14.49C245.319,154.85,248.083,169.312,245.073,183.47z"/>
	</g>
</g>
<g>
</g>
<g>
</g>
<g>
</g>
<g>
</g>
<g>
</g>
<g>
</g>
<g>
</g>
<g>
</g>
<g>
</g>
<g>
</g>
<g>
</g>
<g>
</g>
<g>
</g>
<g>
</g>
<g>
</g>
</svg>
