<?xml version="1.0" encoding="iso-8859-1"?>
<!-- Generator: Adobe Illustrator 16.0.0, SVG Export Plug-In . SVG Version: 6.00 Build 0)  -->
<!DOCTYPE svg PUBLIC "-//W3C//DTD SVG 1.1//EN" "http://www.w3.org/Graphics/SVG/1.1/DTD/svg11.dtd">
<svg version="1.1" id="Capa_1" xmlns="http://www.w3.org/2000/svg" xmlns:xlink="http://www.w3.org/1999/xlink" x="0px" y="0px"
	 width="110.483px" height="110.482px" viewBox="0 0 110.483 110.482" style="enable-background:new 0 0 110.483 110.482;"
	 xml:space="preserve">
<g>
	<g>
		<path d="M10.2,73.742c-3.167,0-5.735,5.887-5.735,13.148c0,10.399,1.979,13.15,5.147,13.15c3.167,0,6.911-4.515,6.911-14.915
			C16.523,77.865,13.367,73.742,10.2,73.742z"/>
		<path d="M10.435,100.924h-0.324c-2.144,0-3.882,1.56-3.882,3.483v2.592c0,1.923,1.738,3.483,3.882,3.483h0.324
			c2.144,0,3.882-1.561,3.882-3.483v-2.592C14.317,102.483,12.579,100.924,10.435,100.924z"/>
		<path d="M28.14,59.582c-3.167,0-6.323,4.123-6.323,11.385c0,10.399,3.744,14.915,6.912,14.915c3.167,0,5.146-2.75,5.146-13.149
			C33.875,65.469,31.308,59.582,28.14,59.582z"/>
		<path d="M28.228,86.763h-0.323c-2.144,0-3.882,1.56-3.882,3.482v2.593c0,1.923,1.738,3.483,3.882,3.483h0.323
			c2.144,0,3.882-1.561,3.882-3.483v-2.593C32.11,88.322,30.372,86.763,28.228,86.763z"/>
		<path d="M105.944,8.179c-0.75-3.076-5.503-5.166-12.559-3.444c-10.104,2.464-13.604,7.171-12.852,10.249
			c0.75,3.078,3.892,4.348,13.994,1.884C101.583,15.146,106.694,11.256,105.944,8.179z"/>
		<path d="M79.48,14.391c-0.508-2.083-2.435-3.4-4.303-2.945l-2.519,0.614c-1.869,0.455-2.973,2.514-2.465,4.597l0.077,0.313
			c0.509,2.083,2.435,3.402,4.304,2.946l2.52-0.614c1.869-0.456,2.972-2.514,2.463-4.597L79.48,14.391z"/>
		<path d="M42.892,26.015c3.14-0.417,4.74-3.403,3.37-13.713c-0.956-7.198-4.277-12.696-7.417-12.279
			c-3.139,0.418-5.725,4.92-4.768,12.118C35.447,22.45,39.752,26.432,42.892,26.015z"/>
		<path d="M47.162,32.466l-0.342-2.569c-0.253-1.907-2.182-3.224-4.307-2.941l-0.321,0.043c-2.125,0.282-3.643,2.057-3.389,3.964
			l0.342,2.57c0.253,1.907,2.181,3.224,4.307,2.94l0.32-0.042C45.897,36.148,47.415,34.373,47.162,32.466z"/>
		<path d="M67.969,62.873c-0.578,0.192-1.196,0.338-1.837,0.434l0.294,1.979c0.756-0.112,1.488-0.286,2.176-0.515
			c3.489-1.163,5.74-2.898,6.691-5.157l-1.842-0.776C72.732,60.543,70.888,61.901,67.969,62.873z"/>
		<path d="M73.204,49.352c-1.369-2.27-3.233-4.759-6.043-8.072l-1.524,1.293c2.737,3.229,4.544,5.639,5.856,7.812L73.204,49.352z"/>
		<path d="M16.888,41.552c0,0-0.001,0-0.002,0c-2.132,0-3.772,0.88-4.873,2.616l1.688,1.071c0.73-1.151,1.743-1.688,3.185-1.688
			c0,0,0.001,0,0.002,0c1.217,0,2.71,0.378,4.563,1.156l0.774-1.844C20.122,41.981,18.376,41.552,16.888,41.552z"/>
		<path d="M46.978,59.859c3.337,1.817,6.439,3.208,9.222,4.13l0.628-1.898c-2.668-0.885-5.662-2.227-8.894-3.987L46.978,59.859z"/>
		<path d="M36.921,51.262c-1.266-0.759-2.527-1.538-3.774-2.307l-2.071-1.274l-1.043,1.706l2.064,1.271
			c1.253,0.772,2.523,1.557,3.755,2.294l0.352,0.234c0.68,0.453,1.421,0.947,2.214,1.469l1.099-1.672
			c-0.789-0.519-1.526-1.011-2.203-1.461L36.921,51.262z"/>
		<path d="M12.358,54.354l-1.998,0.089c0.068,1.523,0.215,3.228,0.438,5.062l1.985-0.241C12.567,57.479,12.424,55.827,12.358,54.354
			z"/>
		<path d="M62.543,30.276l-7.342-1.955l-1.954,7.342l1.933,0.515l1.189-4.469c0.168,0.233,0.359,0.496,0.563,0.779
			c1.146,1.587,2.716,3.761,3.592,4.79l1.521-1.297c-0.823-0.968-2.366-3.104-3.493-4.664c-0.011-0.016-0.021-0.027-0.03-0.042
			l3.506,0.933L62.543,30.276z"/>
	</g>
</g>
<g>
</g>
<g>
</g>
<g>
</g>
<g>
</g>
<g>
</g>
<g>
</g>
<g>
</g>
<g>
</g>
<g>
</g>
<g>
</g>
<g>
</g>
<g>
</g>
<g>
</g>
<g>
</g>
<g>
</g>
</svg>
