<?xml version="1.0" encoding="iso-8859-1"?>
<!-- Generator: Adobe Illustrator 18.0.0, SVG Export Plug-In . SVG Version: 6.00 Build 0)  -->
<!DOCTYPE svg PUBLIC "-//W3C//DTD SVG 1.1//EN" "http://www.w3.org/Graphics/SVG/1.1/DTD/svg11.dtd">
<svg version="1.1" id="Capa_1" xmlns="http://www.w3.org/2000/svg" xmlns:xlink="http://www.w3.org/1999/xlink" x="0px" y="0px"
	 viewBox="0 0 375.22 375.22" style="enable-background:new 0 0 375.22 375.22;" xml:space="preserve">
<g>
	<path d="M4,291.431l367.22-0.003c1.618,0,3.076-0.975,3.695-2.47c0.619-1.494,0.277-3.215-0.867-4.358L229.939,140.49
		c-0.75-0.75-1.768-1.172-2.829-1.172c-1.062,0-2.079,0.422-2.829,1.172l-64.172,64.173l-36.67-36.67
		c-1.561-1.563-4.096-1.563-5.656,0L1.172,284.603c-1.145,1.144-1.486,2.864-0.867,4.358C0.924,290.457,2.382,291.431,4,291.431z
		 M238.874,283.428l-22.03-22.03h122.689l22.031,22.03H238.874z M157.923,213.79H83.298l14.66-14.66h45.305L157.923,213.79z
		 M165.923,221.79l14.67,14.67H60.628l14.67-14.67H165.923z M331.533,253.398H208.844l-20.01-20.01h122.689L331.533,253.398z
		 M188.593,244.46l14.67,14.67H37.958l14.67-14.67H188.593z M275.502,197.368h-96.785l20.004-20.004h56.777L275.502,197.368z
		 M227.11,148.976l20.388,20.388h-40.776L227.11,148.976z M170.717,205.368h112.785l20.021,20.02H180.834l-15.069-15.069
		L170.717,205.368z M120.61,176.478l14.652,14.652h-29.305L120.61,176.478z M29.958,267.13h181.305l16.298,16.298H83v0.003H13.657
		L29.958,267.13z"/>
	<path d="M73.6,145.789c17.094,0,31-13.906,31-31c0-17.094-13.906-31-31-31c-17.094,0-31,13.906-31,31
		C42.6,131.882,56.506,145.789,73.6,145.789z M73.6,91.789c12.683,0,23,10.317,23,23s-10.317,23-23,23s-23-10.317-23-23
		S60.917,91.789,73.6,91.789z"/>
</g>
<g>
</g>
<g>
</g>
<g>
</g>
<g>
</g>
<g>
</g>
<g>
</g>
<g>
</g>
<g>
</g>
<g>
</g>
<g>
</g>
<g>
</g>
<g>
</g>
<g>
</g>
<g>
</g>
<g>
</g>
</svg>
