<?xml version="1.0" encoding="iso-8859-1"?>
<!-- Generator: Adobe Illustrator 16.0.0, SVG Export Plug-In . SVG Version: 6.00 Build 0)  -->
<!DOCTYPE svg PUBLIC "-//W3C//DTD SVG 1.1//EN" "http://www.w3.org/Graphics/SVG/1.1/DTD/svg11.dtd">
<svg version="1.1" id="Capa_1" xmlns="http://www.w3.org/2000/svg" xmlns:xlink="http://www.w3.org/1999/xlink" x="0px" y="0px"
	 width="46.223px" height="46.223px" viewBox="0 0 46.223 46.223" style="enable-background:new 0 0 46.223 46.223;"
	 xml:space="preserve">
<g>
	<g>
		<path d="M23.243,28.731h0.074c0.581,0,1.113-0.339,1.378-0.854c0.268-0.517,0.225-1.145-0.11-1.619l-4.391-6.208
			c0.199-0.141,0.365-0.331,0.48-0.556c0.267-0.515,0.224-1.137-0.111-1.611l-3.673-5.191c-0.291-0.411-0.763-0.656-1.268-0.656
			c-0.503,0-0.977,0.244-1.268,0.655l-3.673,5.191c-0.335,0.474-0.378,1.094-0.111,1.61c0.117,0.225,0.283,0.414,0.482,0.554
			l-4.39,6.205c-0.335,0.475-0.378,1.11-0.111,1.625c0.266,0.517,0.798,0.854,1.379,0.854h0.073l-5.669,7.996
			c-0.335,0.474-0.377,1.1-0.111,1.616c0.267,0.515,0.799,0.843,1.379,0.843h9.761v3.653c0,0.857,0.7,1.541,1.558,1.541h1.071
			c0.858,0,1.566-0.684,1.566-1.541v-3.653h10.088c0.58,0,1.112-0.337,1.379-0.851c0.266-0.517,0.224-1.129-0.111-1.603
			L23.243,28.731z"/>
		<path d="M28.896,15.013h0.592l-3.955,5.585c-0.153,0.218-0.174,0.511-0.051,0.748c0.123,0.237,0.367,0.393,0.634,0.393h6.824
			v2.627c0,0.395,0.312,0.703,0.707,0.703h1.252c0.395,0,0.704-0.309,0.704-0.703v-2.627h7.041c0.266,0,0.512-0.157,0.634-0.395
			c0.123-0.237,0.104-0.524-0.052-0.742l-3.954-5.589h0.593c0.268,0,0.513-0.152,0.634-0.39c0.123-0.237,0.104-0.524-0.051-0.743
			l-3.017-4.264c0.207-0.044,0.387-0.177,0.487-0.369c0.122-0.238,0.103-0.523-0.053-0.742l-2.902-4.104
			c-0.135-0.189-0.353-0.302-0.583-0.302c-0.231,0-0.449,0.113-0.583,0.302l-2.903,4.103c-0.154,0.219-0.174,0.504-0.051,0.742
			c0.099,0.192,0.279,0.325,0.484,0.369l-3.016,4.263c-0.155,0.218-0.174,0.508-0.052,0.745
			C28.383,14.861,28.629,15.013,28.896,15.013z"/>
		<path d="M46.091,41.649l-3.162-4.461h0.263c0.267,0,0.511-0.158,0.634-0.396c0.123-0.236,0.104-0.527-0.051-0.744l-2.423-3.427
			c0.136-0.065,0.25-0.174,0.324-0.313c0.123-0.237,0.103-0.523-0.053-0.741l-2.188-3.095c-0.134-0.189-0.353-0.303-0.583-0.303
			c-0.231,0-0.449,0.112-0.583,0.303l-2.19,3.094c-0.153,0.218-0.174,0.504-0.051,0.74c0.072,0.14,0.188,0.248,0.322,0.313
			l-2.422,3.423c-0.154,0.219-0.174,0.514-0.052,0.75c0.123,0.237,0.367,0.396,0.635,0.396h0.263l-3.163,4.461
			c-0.154,0.218-0.174,0.506-0.051,0.744c0.123,0.236,0.368,0.389,0.634,0.389h5.473v2.07c0,0.395,0.299,0.727,0.692,0.727h0.805
			c0.396,0,0.701-0.332,0.701-0.727v-2.07h5.643c0.268,0,0.513-0.152,0.636-0.389C46.266,42.155,46.246,41.867,46.091,41.649z"/>
		<path d="M4.705,13.882c0,0.358,0.316,0.666,0.674,0.666h0.448c0.357,0,0.676-0.308,0.676-0.666v-1.532h4.194
			c0.242,0,0.465-0.138,0.576-0.354c0.111-0.215,0.093-0.485-0.047-0.684L8.857,7.955h0.031c0.243,0,0.465-0.126,0.576-0.342
			c0.111-0.216,0.094-0.471-0.047-0.668L7.582,4.353c0.083-0.059,0.153-0.135,0.202-0.229c0.112-0.215,0.094-0.474-0.046-0.672
			L6.201,1.282C6.08,1.11,5.884,1.007,5.672,1.007c-0.21,0-0.408,0.103-0.529,0.274L3.608,3.452C3.468,3.65,3.45,3.909,3.561,4.125
			c0.049,0.094,0.12,0.172,0.203,0.231L1.929,6.949c-0.14,0.198-0.158,0.449-0.047,0.664c0.112,0.215,0.334,0.342,0.576,0.342h0.03
			l-2.369,3.357c-0.141,0.198-0.158,0.465-0.047,0.68c0.111,0.215,0.334,0.358,0.576,0.358h4.057V13.882z"/>
		<path d="M18.694,9.619h3.458v1.309c0,0.202,0.162,0.356,0.363,0.356h0.632c0.201,0,0.336-0.154,0.336-0.356V9.619h3.593
			c0.137,0,0.262-0.091,0.324-0.212c0.063-0.121,0.053-0.286-0.026-0.397l-2.007-2.854h0.297c0.137,0,0.262-0.065,0.324-0.186
			c0.063-0.121,0.053-0.261-0.025-0.372l-1.529-2.159c0.104-0.023,0.195-0.089,0.246-0.187c0.062-0.121,0.052-0.266-0.027-0.377
			l-1.47-2.078c-0.069-0.097-0.18-0.154-0.297-0.154c-0.119,0-0.23,0.058-0.299,0.154l-1.469,2.078
			c-0.079,0.111-0.089,0.257-0.027,0.378c0.051,0.097,0.141,0.165,0.245,0.188l-1.528,2.162c-0.079,0.111-0.089,0.247-0.026,0.367
			c0.062,0.121,0.187,0.186,0.323,0.186h0.296l-2.005,2.846c-0.079,0.111-0.089,0.278-0.026,0.399
			C18.432,9.523,18.557,9.619,18.694,9.619z"/>
	</g>
</g>
<g>
</g>
<g>
</g>
<g>
</g>
<g>
</g>
<g>
</g>
<g>
</g>
<g>
</g>
<g>
</g>
<g>
</g>
<g>
</g>
<g>
</g>
<g>
</g>
<g>
</g>
<g>
</g>
<g>
</g>
</svg>
